<?xml version="1.0" standalone="no"?>
<!DOCTYPE svg PUBLIC "-//W3C//DTD SVG 20010904//EN"
 "http://www.w3.org/TR/2001/REC-SVG-20010904/DTD/svg10.dtd">
<svg version="1.0" xmlns="http://www.w3.org/2000/svg"
 width="500.000000pt" height="500.000000pt" viewBox="0 0 500.000000 500.000000"
 preserveAspectRatio="xMidYMid meet">

<g transform="translate(0.000000,500.000000) scale(0.100000,-0.100000)"
fill="#000000" stroke="none">
<path d="M760 2500 l0 -480 1740 0 1740 0 0 480 0 480 -1740 0 -1740 0 0 -480z
m3460 0 l0 -450 -1720 0 -1720 0 0 450 0 450 1720 0 1720 0 0 -450z"/>
<path d="M850 2500 l0 -390 825 0 825 0 0 390 0 390 -825 0 -825 0 0 -390z
m1186 109 c19 -18 34 -37 34 -41 0 -16 -33 -7 -62 17 -66 55 -158 12 -158 -75
0 -90 99 -133 161 -71 42 42 37 51 -26 51 -42 0 -55 3 -55 15 0 12 15 15 75
15 83 0 86 -3 61 -64 -42 -100 -172 -109 -233 -17 -88 132 89 280 203 170z
m-966 -99 c0 -123 -1 -130 -20 -130 -19 0 -20 7 -20 130 0 123 1 130 20 130
19 0 20 -7 20 -130z m184 55 l48 -74 49 74 c34 52 55 75 69 75 19 0 20 -6 20
-130 0 -123 -1 -130 -20 -130 -19 0 -20 7 -20 98 l0 97 -41 -62 c-23 -35 -49
-63 -58 -63 -9 0 -34 28 -56 62 l-40 62 -3 -97 c-2 -77 -6 -97 -17 -97 -12 0
-15 23 -15 130 0 161 10 168 84 55z m451 -57 c48 -116 51 -128 33 -128 -13 0
-24 11 -31 30 -11 29 -14 30 -75 30 -61 0 -63 -1 -73 -30 -7 -20 -18 -30 -31
-30 -12 0 -18 5 -15 13 2 6 26 65 53 130 63 155 68 155 139 -15z m625 117 c0
-12 -14 -15 -65 -15 l-65 0 0 -40 0 -40 60 0 c47 0 60 -3 60 -15 0 -12 -13
-15 -60 -15 l-60 0 0 -45 0 -45 65 0 c51 0 65 -3 65 -15 0 -12 -16 -15 -85
-15 l-85 0 0 130 0 130 85 0 c69 0 85 -3 85 -15z"/>
<path d="M1608 2530 l-25 -55 45 -3 c24 -2 46 -1 48 1 2 2 -7 28 -20 58 l-24
54 -24 -55z"/>
<path d="M2694 2639 c-40 -11 -55 -30 -56 -68 -1 -39 25 -68 71 -81 50 -14 65
-25 58 -44 -8 -20 -41 -21 -57 -1 -14 17 -80 21 -80 4 0 -6 13 -24 29 -40 25
-24 37 -29 81 -29 61 0 100 30 100 78 0 36 -21 55 -85 79 -29 11 -50 25 -50
33 0 21 46 26 57 6 6 -10 22 -16 43 -16 33 0 34 1 24 29 -15 43 -77 66 -135
50z"/>
<path d="M3932 2640 c-86 -20 -128 -122 -82 -197 25 -41 68 -63 122 -63 125 0
185 144 94 227 -20 18 -44 33 -55 33 -11 0 -25 2 -33 4 -7 2 -28 0 -46 -4z
m87 -86 c28 -35 26 -59 -5 -90 -39 -40 -95 -20 -109 38 -5 21 -1 33 19 52 33
34 69 33 95 0z"/>
<path d="M2870 2605 c0 -34 1 -35 40 -35 l40 0 0 -95 0 -95 35 0 35 0 0 95 0
95 40 0 c39 0 40 1 40 35 l0 35 -115 0 -115 0 0 -35z"/>
<path d="M3140 2550 c0 -134 24 -170 113 -170 85 0 117 51 117 188 l0 72 -40
0 -40 0 0 -90 c0 -78 -2 -91 -19 -100 -25 -13 -27 -13 -45 6 -12 12 -16 36
-16 100 l0 84 -35 0 -35 0 0 -90z"/>
<path d="M3420 2510 l0 -130 68 1 c88 0 131 16 159 58 44 65 18 157 -52 187
-19 8 -66 14 -105 14 l-70 0 0 -130z m159 45 c21 -20 18 -75 -4 -91 -10 -8
-34 -14 -52 -14 l-33 0 0 58 c0 32 3 62 7 66 11 11 65 -2 82 -19z"/>
<path d="M3710 2510 l0 -130 40 0 40 0 0 130 0 130 -40 0 -40 0 0 -130z"/>
</g>
</svg>
